<svg xmlns="http://www.w3.org/2000/svg" viewBox="0 0 928.08 399.45"><defs><style>.cls-1{fill:#fff;}</style></defs><g id="Capa_2" data-name="Capa 2"><g id="Capa_1-2" data-name="Capa 1"><path class="cls-1" d="M0,106.62c13.67,0,27.35-.07,41,0a32,32,0,0,1,21.69,8.24c5.88,5.22,10.17,11.49,11.7,19.33,2.81,14.47-2.73,30.12-22,35.22a57.89,57.89,0,0,1-14.23,1.81c-5.11,0-10.23,0-15.35,0-1.94,0-2,0-2,2q0,15.1,0,30.22c0,.56,0,1.12,0,1.68,0,1.73,0,1.76-1.68,1.77-3.68,0-7.36,0-11,0-1.66,0-1.69,0-1.7-1.76s.1-3.19.1-4.79q0-37.53.07-75.06c0-2.16,0-4.32.06-6.47.06-1.3-.46-1.65-1.67-1.6-1.67.07-3.35,0-5,0Zm19.24,31.61q0,9.47,0,18.92c0,2.22,0,2.23,2.17,2.24,6.71,0,13.42-.11,20.13,0A16.78,16.78,0,0,0,55.34,153c5.62-6.71,6.4-14.5,4.27-22.58-2.21-8.34-8.92-13.09-17.55-13.1-7,0-13.9,0-20.85,0-1.94,0-2,0-2,2Q19.23,128.76,19.24,138.23Z"></path><path class="cls-1" d="M565.75,290.59v-41c0-.56,0-1.13,0-1.68.08-.94-.33-1.27-1.25-1.25-2.16,0-4.32,0-6.47,0-1,0-1.43-.29-1.42-1.36.06-3.11,0-6.23,0-9.35,0-.94.39-1.3,1.29-1.22h.48c13.27,0,26.54-.14,39.81.05a61.68,61.68,0,0,1,32.73,9.4c10.28,6.5,16.05,15.76,17.85,27.63a76.17,76.17,0,0,1-.74,28.83c-4.11,17.71-15.55,28.48-32.85,33.3A36.39,36.39,0,0,1,605,335.25c-12.31-.09-24.62-.09-36.93-.13h-1.44a.78.78,0,0,1-.87-.88c0-.64,0-1.28,0-1.92Zm14.54-6h-.08v35c0,.16,0,.32,0,.48,0,1.61,0,1.64,1.8,1.65q10.54.06,21.1.09a35.71,35.71,0,0,0,7.14-.7,33.5,33.5,0,0,0,26.6-28,62.16,62.16,0,0,0-.67-20.5c-1.37-7.17-4.82-13.21-10.92-17.41a44.11,44.11,0,0,0-22.07-7.9c-7.1-.51-14.23-.1-21.34-.19-1,0-1.49.22-1.45,1.32s-.09,2.39-.09,3.59Q580.29,268.24,580.29,284.55Z"></path><path class="cls-1" d="M769.32,206.89c-4.21,0-8.42,0-12.63,0-1,0-1.39-.69-1.92-1.26q-4.69-5.13-9.36-10.29c-.53-.59-1.09-1.16-1.81-1.92-1.58,1.23-3.1,2.46-4.66,3.64-14.27,10.83-29.89,13.17-46.86,7.61-14-4.57-21.16-19.5-16.69-33.87,2.75-8.84,8.64-14.74,17.15-18.16a10.4,10.4,0,0,0,2.68-1.06c-.36-.87-1.19-1.25-1.82-1.83a37,37,0,0,1-9.28-12.37A22,22,0,0,1,683,122.85a17.63,17.63,0,0,1,7.28-10.37A36.81,36.81,0,0,1,712.47,106a29.25,29.25,0,0,1,12.31,2.74c8.5,4,12.82,11.87,12,21.24a23.29,23.29,0,0,1-9.26,16.91,53.83,53.83,0,0,1-9.88,6.32c-.7.34-1.38.73-2.37,1.27L742,178.32c.82-.27,1-.93,1.3-1.47a53.12,53.12,0,0,0,4.5-9.78,22.24,22.24,0,0,0,1-9c-.35-3.19-.12-6.39-.22-9.58,0-1.07.21-1.59,1.45-1.57,5.43.07,10.87.07,16.31,0,1,0,1.46.27,1.43,1.35-.06,2.08-.05,4.16,0,6.24,0,1-.31,1.45-1.37,1.4-1.52-.06-3,0-4.56,0-.91,0-1.22.29-1.32,1.21a71.07,71.07,0,0,1-2.06,11.3,51,51,0,0,1-6.52,14.6c-1.47,2.24-1.31,1.83.11,3.64a198.57,198.57,0,0,0,16,18.18,17.32,17.32,0,0,0,1.69,1.36C769.55,206.45,769.44,206.67,769.32,206.89Zm-35.06-20a8.21,8.21,0,0,0-.63-.82c-9.44-9.44-19.4-18.31-29.54-27a1.94,1.94,0,0,0-2.35-.36A31.76,31.76,0,0,0,687,171.63a13.88,13.88,0,0,0-2,9.42c1.07,7.62,5.63,12.32,12.68,14.74,6.33,2.18,12.87,2.28,19.42,1.29C724.14,196,729.7,192.36,734.26,186.93Zm-24-71.63c-5.52,0-10.37,1.58-14,6-2.94,3.58-3.49,7.53-1.32,11.59a34.21,34.21,0,0,0,11.29,12.49,2.53,2.53,0,0,0,2.87.14,50,50,0,0,0,9-5.47,20.07,20.07,0,0,0,6.22-8.08,10.83,10.83,0,0,0-2.46-12.34C718.67,116.38,714.68,115.34,710.3,115.3Z"></path><path class="cls-1" d="M157.62,206.89c-5.2,0-10.38,0-15.56,0-1.08,0-1.29-.68-1.59-1.45-1.86-4.76-3.75-9.5-5.62-14.25-1.2-3.05-2.43-6.08-3.56-9.15a2,2,0,0,0-2.22-1.62q-18.7.08-37.41,0c-1.31,0-1.76.49-2.13,1.66q-3.44,11.09-7,22.13c-1,3-.24,2.64-3.51,2.66-3.6,0-7.2,0-10.8,0a5,5,0,0,1-2.35-.19,5.28,5.28,0,0,1,.74-2.49q18.28-47.34,36.61-94.68c1-2.66.54-2.26,3.4-2.28s5.44.09,8.15,0a2.49,2.49,0,0,1,2.79,1.9q7.71,18.84,15.52,37.63,11.85,28.65,23.71,57.3A6.34,6.34,0,0,1,157.62,206.89Zm-31.36-41.7c-4.93-12.27-9.72-24.4-14.88-37l-15.14,37Z"></path><path class="cls-1" d="M515.75,207C491.3,206.87,471,191.6,465,169.75a50.54,50.54,0,0,1,27.83-59.43c25.59-11.91,56.53-1.1,68.66,24a50.62,50.62,0,0,1-31.75,70.63A49.39,49.39,0,0,1,515.75,207Zm37.12-47c0-12.62-2.31-20.59-6.93-27.64-13.37-20.43-40.78-23.34-57.45-6.1a43.28,43.28,0,0,0-.94,58.61c14.38,15.86,38,16.48,53.13,1.32C548.92,177.94,552.74,167.79,552.87,160Z"></path><path class="cls-1" d="M46.46,334.4a3.91,3.91,0,0,1,.59-2.27q18.35-47.46,36.71-94.9c1-2.58.68-2.08,3-2.11,2.88,0,5.76.07,8.63-.05a2.34,2.34,0,0,1,2.6,1.77c4.66,11.38,9.39,22.72,14.09,34.08l25.34,61.29a5.47,5.47,0,0,1,.71,2.2,3.91,3.91,0,0,1-2,.23H123.71c-2.58,0-2.09.11-2.9-1.95q-4.29-10.79-8.53-21.6a8.92,8.92,0,0,1-.43-1.12c-.31-1.43-1.21-1.75-2.6-1.74-12.23,0-24.47,0-36.7,0-1.89,0-1.91,0-2.48,1.79-2.42,7.52-4.8,15.06-7.23,22.57-.71,2.19-.24,2-2.78,2-3.92,0-7.83,0-11.75,0A3,3,0,0,1,46.46,334.4Zm60.4-41.3L92,255.94,76.76,293.1Z"></path><path class="cls-1" d="M551.12,334.64c-5.51,0-10.62,0-15.73,0-1.23,0-1.4-.83-1.71-1.62-2.9-7.35-5.77-14.71-8.68-22.05-1.29-3.24-.49-2.72-4.06-2.72q-17.64,0-35.26,0c-2.59,0-2.18-.28-2.95,2.12-2.4,7.44-4.77,14.89-7.16,22.34-.61,1.91-.62,1.92-2.62,1.92h-13.6c-.43-1.1.21-1.85.5-2.61q16.56-42.88,33.16-85.74c1.21-3.13,2.47-6.24,3.61-9.39a2.24,2.24,0,0,1,2.54-1.83q4.43.19,8.87,0a2.49,2.49,0,0,1,2.8,1.86c3.13,7.77,6.37,15.5,9.58,23.24q14.87,36,29.75,71.9C550.46,332.79,550.71,333.54,551.12,334.64Zm-48.4-78.72c-5.2,12.73-10.17,24.87-15.16,37.09h30Z"></path><path class="cls-1" d="M232.58,206.49c2.42-6.29,4.68-12.17,6.95-18q15.28-39.51,30.59-79a7.94,7.94,0,0,0,.43-1.11,1.61,1.61,0,0,1,1.89-1.37c3.28,0,6.56.06,9.83,0a1.94,1.94,0,0,1,2.12,1.44c1.83,4.59,3.74,9.16,5.63,13.73L323.9,204c.3.73.58,1.46.87,2.2-.63.53-1.28.32-1.88.33-4.31,0-8.63,0-12.95,0a2.3,2.3,0,0,1-2.61-1.75c-2.88-7.53-5.87-15-8.82-22.51-1-2.48-.66-2.15-3-2.15q-18.11,0-36.21,0c-2.32,0-2.06-.29-2.79,2q-3.57,11.17-7.13,22.35c-.65,2-.66,2-2.8,2Zm60.75-41.61-14.88-37.09c-5.15,12.6-10.12,24.74-15.18,37.09Z"></path><path class="cls-1" d="M706.08,335.6a51.45,51.45,0,0,1-50.34-39.39,50.55,50.55,0,0,1,23.34-54.62c23.86-14.46,55.35-7.42,70.52,15.75,18.56,28.36,4.35,66.45-28.39,76.15A50.14,50.14,0,0,1,706.08,335.6Zm-38.19-51.26a43,43,0,0,0,8.2,25.76c13.4,18.39,38.49,21,54.83,5.78,16.83-15.7,17.86-43.21,2.25-60.12-15.47-16.74-40.81-16.12-55.42,1.4A42.18,42.18,0,0,0,667.89,284.34Z"></path><path class="cls-1" d="M268,335.6c-22.55.27-43.56-14.37-50-36.84a50.49,50.49,0,0,1,31.51-61.41c27.66-10.16,57.85,4,67.23,31.36,9.31,27.14-6.22,56.64-33.94,64.78A48.59,48.59,0,0,1,268,335.6Zm.61-92c-9.76.06-17.56,2.94-24.3,8.57-18.18,15.18-20,43.82-3.91,61.36,14.87,16.21,38.85,16.41,54,.43,14.5-15.31,15.27-40.34,1.66-56.62C288.62,248.52,279.17,243.83,268.56,243.59Z"></path><path class="cls-1" d="M374.62,106.23c6.64-.13,13.62.46,20.24,3.23,9.55,4,15.49,11.23,18.45,21a11.47,11.47,0,0,1,.35,4.28,4.11,4.11,0,0,1-2.43,3.58c-3.47,1.74-7.19.37-8.29-3.26-3.41-11.31-11.34-17-22.73-18.24-15.26-1.7-30.36,6.42-36.91,19.14a43.27,43.27,0,0,0-4.59,19.88c-.06,10.2,2.51,19.62,8.71,27.83,5.95,7.87,14.08,11.86,23.81,12.59a45.8,45.8,0,0,0,27.39-6.13A21.19,21.19,0,0,1,403.4,188a5.64,5.64,0,0,1,6.68,2.39,4.47,4.47,0,0,1-.2,5.36,12.18,12.18,0,0,1-3.87,3.16c-10.64,5.94-21.94,9-34.22,8.15a53.27,53.27,0,0,1-18.37-4.12c-17.22-7.73-27.13-21-29.57-39.74a51.53,51.53,0,0,1,6.39-33c7.05-12.28,17.74-19.62,31.56-22.52A95.42,95.42,0,0,1,374.62,106.23Z"></path><path class="cls-1" d="M377.56,335.12c-10.33-.07-20.17-2.15-29-7.76-13.37-8.51-20.93-20.75-22.8-36.47a52.25,52.25,0,0,1,5.31-30.7c7.28-14.13,19-22.3,34.57-24.95a69.67,69.67,0,0,1,20.54-.55c13.28,1.69,23,8.22,28.15,20.82a15.1,15.1,0,0,1,1.32,6.76,4.45,4.45,0,0,1-4.28,4.6c-3.2.36-5.53-.41-6.59-4C401.61,252,394,246.28,383.12,245c-13.48-1.61-24.9,2.77-33.87,13a34.84,34.84,0,0,0-7.78,17.27c-1.91,10.8-.67,21.18,4.45,30.95,6.19,11.83,16.18,17.71,29.42,18.16a45.34,45.34,0,0,0,24.82-6,25.14,25.14,0,0,1,5-2.38,5.72,5.72,0,0,1,6.92,2.33,4.48,4.48,0,0,1-.21,5.36,12.75,12.75,0,0,1-4.08,3.29C398.36,332.18,388.38,335.2,377.56,335.12Z"></path><path class="cls-1" d="M601.69,208.2a55.24,55.24,0,0,1-24.41-6,26,26,0,0,1-2.87-1.73c-4.13-2.89-2.63-8.15-.15-10.17a4,4,0,0,1,4-.85,26.18,26.18,0,0,1,4.11,1.94,48.56,48.56,0,0,0,16,5.64A25.21,25.21,0,0,0,614,194.78a19.87,19.87,0,0,0,9.74-11.08c2.08-5.6,1-10.69-3-15.13a23.46,23.46,0,0,0-10.24-6.87c-4.85-1.6-9.73-3.12-14.57-4.73a62,62,0,0,1-11-4.67,22.55,22.55,0,0,1-11.74-16.87,20.7,20.7,0,0,1,1.45-11.27,26.64,26.64,0,0,1,15.84-15.43,40.82,40.82,0,0,1,31.08.84,22.67,22.67,0,0,1,13.49,15,8.53,8.53,0,0,1-.15,5.87,4.65,4.65,0,0,1-5.42,2.92,7,7,0,0,1-5.4-3.93c-.34-.72-.69-1.44-1-2.18a14.69,14.69,0,0,0-9.58-8.74c-4.77-1.51-9.66-2.33-14.64-1.31a14.75,14.75,0,0,0-11.06,18.31,11.75,11.75,0,0,0,7.91,8c4.06,1.45,8.13,2.86,12.18,4.34a147.26,147.26,0,0,1,14.78,6.24c1,.5,2,1,3,1.54,11.58,6.14,14.66,16.55,12.35,27.44-2.43,11.38-9.77,18.56-20.27,22.8A35.23,35.23,0,0,1,601.69,208.2Z"></path><path class="cls-1" d="M173.2,335.65a53.86,53.86,0,0,1-21.93-4.94,29.32,29.32,0,0,1-5-2.79c-4-2.91-2.48-8.21.05-10.2a4.15,4.15,0,0,1,4.28-.65,40.93,40.93,0,0,1,4.51,2.21,49.52,49.52,0,0,0,16.27,5.43c9.47,1.31,18.63-2.85,22.94-10.6,1.95-3.51,3-7.21,2-11.28a15.37,15.37,0,0,0-3.87-7.05,24.9,24.9,0,0,0-10.77-6.9c-5.4-1.73-10.8-3.45-16.16-5.27a41.47,41.47,0,0,1-10.17-4.78c-7.68-5.23-11.36-12.52-10.17-21.76,1.06-8.17,5.68-14.27,12.61-18.61A32.25,32.25,0,0,1,172,233.89a42.79,42.79,0,0,1,19.36,2.27c7.26,2.7,12.63,7.37,15.3,14.82a11.12,11.12,0,0,1,.59,5.42c-.47,3.2-2.8,4.86-6,4.35a6.67,6.67,0,0,1-5.1-3.56c-.45-.85-.87-1.71-1.24-2.6a14.78,14.78,0,0,0-9.63-8.7,32.73,32.73,0,0,0-12.77-1.54c-7.45.58-15.78,8.41-12.78,18.74,1.22,4.2,4.2,6.68,8.22,8q7.5,2.5,14.87,5.36a135.9,135.9,0,0,1,12.5,5.47c1.56.8,3.1,1.66,4.58,2.61,8.43,5.43,11.47,13.34,10.48,23.05C209,322.2,197.32,332.16,184.29,335A41.82,41.82,0,0,1,173.2,335.65Z"></path><path class="cls-1" d="M793.08,334.94c-9.5-.1-18.3-1.75-26.48-6a19.87,19.87,0,0,1-3.06-1.87,6.39,6.39,0,0,1,.13-10.16,4,4,0,0,1,3.83-.74,22.37,22.37,0,0,1,4.12,1.92,47.36,47.36,0,0,0,15.94,5.66c7.9,1.07,15.18-.29,21-6.26A18,18,0,0,0,813.91,306a13.72,13.72,0,0,0-3.4-10.18A25.07,25.07,0,0,0,798.7,288c-5-1.57-9.89-3.14-14.81-4.79a53,53,0,0,1-9.86-4.3c-11.72-6.8-15.19-20.53-8.09-32.07a27.27,27.27,0,0,1,15.58-12.05,41.63,41.63,0,0,1,28,.92c7.08,2.71,12.17,7.51,14.63,14.84a9.19,9.19,0,0,1,.27,6.1,4.79,4.79,0,0,1-5.82,3.37,6.92,6.92,0,0,1-5.19-3.86c-.38-.79-.74-1.59-1.09-2.39a14.68,14.68,0,0,0-9.46-8.56c-4.61-1.46-9.34-2.27-14.17-1.41a14.7,14.7,0,0,0-11.77,17.65c1,4.45,3.84,7.24,8,8.75s8.3,2.89,12.41,4.42a141.27,141.27,0,0,1,16.48,7.13,31.81,31.81,0,0,1,7.12,4.83,21.27,21.27,0,0,1,6.87,14.34c1.35,16.85-9.84,28-22.1,32.15A34.75,34.75,0,0,1,793.08,334.94Z"></path><path class="cls-1" d="M795.42,171.51l66.27-33.12v66.22C839.64,193.65,817.78,182.66,795.42,171.51Z"></path><path class="cls-1" d="M928.08,33.09l-66.2,33.08V0Z"></path><path class="cls-1" d="M861.71,134.42l-66.29-33.14,66.29-33.13Z"></path><path class="cls-1" d="M861.83,136.4l-66.18,33.08V103.32Z"></path><path class="cls-1" d="M927.56,103.75V169c-.79.18-1.36-.38-2-.68l-61.88-31c-.54-.27-1.19-.4-1.54-1,.22-.67.86-.73,1.33-1q31.14-15.6,62.31-31.15C926.35,104.06,926.85,103.53,927.56,103.75Z"></path><path class="cls-1" d="M927.56,35.51v65.32c-.71.21-1.21-.31-1.75-.58q-31-15.5-62.07-31c-.54-.27-1.07-.59-1.62-.89.49-.85,1.23-1,1.84-1.3q30.79-15.42,61.62-30.82C926.2,35.91,926.77,35.38,927.56,35.51Z"></path><path class="cls-1" d="M180.68,152.6v43.15c0,.56,0,1.12,0,1.68-.05.91.33,1.29,1.27,1.27,1.68,0,3.36,0,5,0h27.1c1.71-.05,1.74-.05,1.76-1.71,0-3,0-5.91,0-8.87s-.28-2.65,2.7-2.67,5.76,0,8.64,0c1.24,0,1.65.4,1.64,1.65q-.08,9.1,0,18.22c0,1.26-.4,1.64-1.64,1.63-6.23,0-12.47,0-18.7,0H169.4c-.56,0-1.12,0-1.67,0-.88.06-1.38-.21-1.31-1.19,0-.56,0-1.12,0-1.68q0-40.87-.08-81.76c0-3.1.41-2.81-2.79-2.83-1.28,0-2.56,0-3.84,0-.82,0-1.14-.37-1.14-1.16,0-3.51,0-7,0-10.55,0-1,.52-1.17,1.36-1.16,2.48,0,5,0,7.43,0h11c2.35,0,2.28-.26,2.28,2.38V152.6Z"></path><path class="cls-1" d="M445.65,157.25v37.64c0,.56,0,1.12,0,1.68-.07.92.3,1.26,1.24,1.25,2.72,0,5.43,0,8.15,0,1.73,0,1.76,0,1.78,1.67,0,2.16,0,4.32.05,6.47,0,.91-.29,1.35-1.24,1.28-.64,0-1.28,0-1.92,0H423.5c-.56,0-1.12,0-1.68,0s-1.06-.24-1.06-1c0-2.48,0-5,0-7.43,0-.89.48-1,1.22-1,2.72,0,5.44-.05,8.15,0,1.28,0,1.75-.42,1.61-1.66a13.81,13.81,0,0,1,0-1.44V119.21c0-.4,0-.8,0-1.19,0-1.8,0-1.82-1.88-1.83-2.47,0-4.95,0-7.43,0-1.17,0-1.75-.22-1.68-1.56.1-2.15,0-4.31,0-6.47,0-.9.27-1.29,1.22-1.27,1.76,0,3.52,0,5.28,0h27.58c2.23,0,2.05-.06,2.05,2.11,0,1.76,0,3.52,0,5.28s0,1.86-1.79,1.87c-2.56,0-5.12,0-7.68,0-1.69,0-1.73,0-1.73,1.7,0,6.31,0,12.63,0,18.94Z"></path><path class="cls-1" d="M446.67,284.84v37.9a15.68,15.68,0,0,1,0,1.68c-.09,1,.45,1.2,1.3,1.19q4.08,0,8.16,0c1.67,0,1.71,0,1.74,1.74,0,2.16,0,4.32,0,6.48,0,.78-.25,1.2-1.1,1.14-.48,0-1,0-1.44,0H424.38c-.4,0-.8,0-1.2,0-1,.09-1.43-.28-1.41-1.35q.08-3.36,0-6.72c0-1.11.48-1.34,1.44-1.32,2.4,0,4.8,0,7.2,0s2.37,0,2.37-2.33q0-22.54,0-45.09,0-15.6,0-31.18c0-.56,0-1.13,0-1.68.09-1.07-.42-1.39-1.42-1.37-2.32,0-4.64,0-7,0-.56,0-1.12,0-1.68,0s-1-.31-1-1c0-2.4,0-4.8,0-7.19,0-.69.29-1,1-1h34.31c.6,0,.85.35.85.9,0,2.48,0,5-.05,7.43,0,1-.72.88-1.34.88h-7.2c-.48,0-1,0-1.44,0-1-.08-1.26.42-1.21,1.3,0,.56,0,1.12,0,1.68Z"></path><path class="cls-1" d="M265.6,381.68c3.65,3.56,6.8,7.48,10.19,11.18,2.29,2.52,2.79,2.88,5.54,4-.29,2.14-.28,2.18-2.12,2.27A25.75,25.75,0,0,1,274,399a12,12,0,0,1-6.89-3.57c-2.86-2.92-5.17-6.29-7.76-9.43-.5-.62-1-1.27-1.53-1.85a5.15,5.15,0,0,0-3.82-.54c-.41.24-.42.64-.42,1,0,3.12,0,6.23,0,9.35a1.79,1.79,0,0,0,1.73,1.91c.63.1,1.25.35,1.88.4,1,.09,1.06.71,1.06,1.5,0,1-.63.95-1.29.95H242.05c-.7,0-1.25-.05-1.25-1s.11-1.3,1.08-1.49c3.75-.71,3.49-.15,3.53-4.77.08-7.75,0-15.5,0-23.25,0-.56,0-1.12-.06-1.68-.13-2.29-.14-2.29-2.4-2.79-.54-.12-1.1-.22-1.63-.39-.73-.24-.5-.89-.52-1.42s.43-.77,1-.77l5,.07c4.72.09,9.43-.24,14.15,0a18.77,18.77,0,0,1,4.69.88c4.05,1.32,6.46,4.08,6.91,8.31a9.81,9.81,0,0,1-5.22,10.22c-.27.16-.58.26-.86.41S265.93,381.47,265.6,381.68Zm-12.09-9.21c0,.87,0,1.75,0,2.63.07,1.57-.69,3.63.29,4.61,1.18,1.18,3.32.39,5,.41a4.79,4.79,0,0,0,5.06-3.85,10.75,10.75,0,0,0-.05-6.13c-1.32-4.62-5.09-6-9-5.65-1,.09-1.35.52-1.33,1.52C253.56,368.16,253.51,370.31,253.51,372.47Z"></path><path class="cls-1" d="M740.67,399.43a38.06,38.06,0,0,1-6-.57,17.26,17.26,0,0,1-13.93-14.61,22,22,0,0,1,.22-9c1.85-7.41,6.54-12.05,13.94-13.91a28.62,28.62,0,0,1,12.59-.29c9.17,1.8,14.71,9,14.26,18.45a22.22,22.22,0,0,1-1.4,7.25c-3,7.44-8.49,11.54-16.39,12.52C742.8,399.39,741.59,399.38,740.67,399.43ZM729.4,378.81a25.62,25.62,0,0,0,0,2.63,20.45,20.45,0,0,0,3.47,10.28,10.36,10.36,0,0,0,17.67-1.38,24.13,24.13,0,0,0-.27-21,10.36,10.36,0,0,0-10.59-5.5c-4.71.41-7.78,3-9.3,7.42A19.69,19.69,0,0,0,729.4,378.81Z"></path><path class="cls-1" d="M474,399.43a38.18,38.18,0,0,1-6-.56A17.32,17.32,0,0,1,454,383.34a23.49,23.49,0,0,1,.23-7.62,18.47,18.47,0,0,1,15.65-14.79,30.35,30.35,0,0,1,11,.08c10,2,14.9,9.79,14.26,19.37a20.93,20.93,0,0,1-1.8,7.41c-3.13,6.83-8.53,10.53-15.91,11.45C476.15,399.38,475,399.38,474,399.43ZM486.1,380a20.84,20.84,0,0,0-2.23-10.17,10.58,10.58,0,0,0-11-6c-4.72.48-8,3.19-9.32,8a25.77,25.77,0,0,0,.85,16.65,13.09,13.09,0,0,0,3.71,5.21,8.93,8.93,0,0,0,5.66,2.26c4.94.17,8.39-1.9,10.47-6.41A21.86,21.86,0,0,0,486.1,380Z"></path><path class="cls-1" d="M81.37,399.43a43.82,43.82,0,0,1-5.56-.53c-7-1.4-11.27-5.67-13.32-12.32a21.25,21.25,0,0,1,0-12.75,17.55,17.55,0,0,1,12.37-12.27,26.84,26.84,0,0,1,14-.38c7.46,1.76,12.28,7,13.24,14.58a22.15,22.15,0,0,1-1.82,12.4c-3.16,6.73-8.54,10.33-15.87,11.11C83.37,399.38,82.33,399.38,81.37,399.43ZM70.3,379.23c.08,1,.1,2.38.3,3.72.54,3.6,1.56,7,4.1,9.78A9.14,9.14,0,0,0,81.16,396c4.82.23,8.32-1.81,10.34-6.22a23.38,23.38,0,0,0,1.85-11.94,19.43,19.43,0,0,0-2.76-9.07,10.16,10.16,0,0,0-10.22-4.88,9.94,9.94,0,0,0-8.77,6.79A25.24,25.24,0,0,0,70.3,379.23Z"></path><path class="cls-1" d="M211.52,399.45c-1.44-.11-2.89-.11-4.3-.36-9.11-1.58-14.75-8.15-15.22-17.63a21.78,21.78,0,0,1,.91-7.57,17.67,17.67,0,0,1,12.79-12.45,27.31,27.31,0,0,1,13.05-.4c8.17,1.67,13.34,7.69,13.91,16.1a23.26,23.26,0,0,1-1.16,9,18.82,18.82,0,0,1-17.35,13.21c-.87.05-1.75,0-2.63,0Zm12.32-19.21a22.13,22.13,0,0,0-2.22-10.44,10.47,10.47,0,0,0-6.3-5.54c-6.15-1.85-11.87,1.22-13.66,7.51a26.1,26.1,0,0,0,.88,16.91,12.76,12.76,0,0,0,3.05,4.55,9.17,9.17,0,0,0,6.18,2.76c4.71.23,7.93-1.91,10-6A22.35,22.35,0,0,0,223.84,380.24Z"></path><path class="cls-1" d="M375.59,399.41a36.26,36.26,0,0,1-4.77-.39c-8.59-1.71-14-7.78-14.73-16.52a22.23,22.23,0,0,1,.64-8.08c2-6.85,6.41-11.27,13.34-13.07a27.27,27.27,0,0,1,14,0,16.42,16.42,0,0,1,12.39,14.26A22,22,0,0,1,393.11,391C389.41,396.6,383.59,399.41,375.59,399.41ZM387.8,380.1a21.07,21.07,0,0,0-2.19-10.29,10.39,10.39,0,0,0-10.79-6c-4.6.47-7.82,3.18-9.16,7.91a26.48,26.48,0,0,0,.68,16.48,13.15,13.15,0,0,0,2.89,4.65,9.35,9.35,0,0,0,6.52,3.11c4.71.24,8-1.89,10-6A21.36,21.36,0,0,0,387.8,380.1Z"></path><path class="cls-1" d="M118.54,368.71a19.79,19.79,0,0,0-.23,4.58q0,10,.08,19.9c0,2.28,0,2.28,2.31,2.82l1.63.38c.92.23.62,1,.64,1.57s-.37.79-.93.79H111.25c-.55,0-.93-.2-.91-.82s-.23-1.34.69-1.54c.71-.15,1.4-.36,2.11-.46a2,2,0,0,0,1.88-2.29c0-2.47.06-4.95.06-7.43q0-9.7-.08-19.41c0-2.32-.19-2.49-2.49-3-.54-.12-1.09-.22-1.63-.38-.74-.23-.52-.88-.54-1.41s.4-.77.94-.77c3.51,0,7,0,10.55,0,1.1,0,1.51.74,2,1.41q8.37,10.66,16.71,21.33l1.89,2.39c.82-.21.55-.79.55-1.2q0-9.22,0-18.46c0-2.23-.15-2.36-2.34-2.86-.54-.12-1.09-.23-1.63-.36-.72-.17-.73-.73-.72-1.31,0-.76.45-.92,1.09-.92,3.44,0,6.88,0,10.32,0,.59,0,1.13,0,1.17.83s0,1.3-.85,1.46c-.16,0-.31.09-.46.13-3.27.89-3.34.89-3.36,4.15,0,9.35,0,18.7,0,28.05,0,.56,0,1.12,0,1.67.07.95-.37,1.31-1.27,1.25a6.93,6.93,0,0,0-1.44,0,3.17,3.17,0,0,1-3.19-1.54c-5.34-7.09-10.74-14.12-16.13-21.16C122.41,373.73,120.62,371.41,118.54,368.71Z"></path><path class="cls-1" d="M534.83,381.36h6.95c.69,0,1.27,0,1.29,1a1.2,1.2,0,0,1-1,1.38c-1.12.32-2.54.1-3.18,1.32-.54,1-.27,2.21-.29,3.32-.06,2.23,0,4.47.1,6.7.06,1,0,1.61-1.15,1.95-7.06,2.17-14.19,3.19-21.47,1.3a17.64,17.64,0,0,1-13.63-16.55,22.42,22.42,0,0,1,.69-8.07c2.09-6.87,7-10.67,13.73-12.32,5-1.22,10.16-.88,15.26-.32,1.59.17,3.17.4,4.76.53.93.07,1.22.49,1.18,1.38-.12,2.79-.19,5.59-.3,8.38,0,.82-.07,1.54-1.26,1.57s-1.5-.54-1.57-1.56c0-.63-.28-1.25-.37-1.88a5.71,5.71,0,0,0-4.78-5,22.73,22.73,0,0,0-10.69,0,8.82,8.82,0,0,0-6.58,6.06,24,24,0,0,0,.59,17.55c3.08,7,10.1,8.74,16.46,7.27a1.3,1.3,0,0,0,1.15-1.51q-.09-3.82,0-7.67a1.85,1.85,0,0,0-1.63-2c-.55-.13-1.09-.24-1.64-.35-.85-.16-1.16-.63-1.12-1.52s.7-.89,1.34-.89Z"></path><path class="cls-1" d="M627.34,361.23c6-.13,11.92.22,17.83-.3,1.12-.1,1.63.2,1.6,1.39-.06,2.56,0,5.12-.08,7.67,0,.74-.07,1.47-1.14,1.42-.87-.05-1.78.17-2-1.08s-.66-2.3-1-3.45a3.41,3.41,0,0,0-2.92-2.51,36.65,36.65,0,0,0-6.46-.25c-.57,0-.89.26-.89.86,0,.24,0,.47,0,.71,0,9.11,0,18.22.09,27.33,0,2.48.1,2.48,2.67,3a11.87,11.87,0,0,0,1.64.32c.94,0,1.19.5,1.2,1.38,0,1.09-.66,1.06-1.42,1.06h-18c-.75,0-1.43,0-1.42-1.06,0-.87.26-1.35,1.19-1.37a10.22,10.22,0,0,0,1.18-.23c3.34-.53,3.2-.54,3.21-3.77,0-8.71,0-17.43,0-26.14,0-2.19.07-2.09-2.09-2.07-1.36,0-2.72.06-4.08.1-2.25.08-3.8,1.05-4.33,3.36-.19.86-.57,1.68-.71,2.54-.18,1.15-.87,1.32-1.87,1.32s-1.3-.3-1.35-1.22c-.15-2.63-.09-5.27-.09-7.9,0-1.24.54-1.47,1.62-1.38C615.6,361.45,621.52,361.1,627.34,361.23Z"></path><path class="cls-1" d="M592.72,360.76c1.67.1,3.35.17,5,.3s1.84.16,1.93,2c.11,2.16.09,4.32.11,6.48,0,.62.09,1.34-.88,1.37-.81,0-1.61.1-1.92-.95-.23-.76-.61-1.48-.83-2.24-.69-2.39-2.33-3.47-4.73-3.73a12.54,12.54,0,0,0-5.45.41,4.51,4.51,0,0,0-1.9,7.68,10.9,10.9,0,0,0,3.57,2.38l6.34,2.84a18.53,18.53,0,0,1,4.86,3A9.77,9.77,0,0,1,599.2,395c-3,2.9-6.71,3.95-10.69,4.25a45.52,45.52,0,0,1-12.15-1c-.91-.17-1.62-.49-1.82-1.56a73.12,73.12,0,0,1-1-7.36c-.06-.61-.19-1.42.77-1.44s2-.52,2.37.88a19.8,19.8,0,0,0,1.32,3.59,4.85,4.85,0,0,0,2.92,2.67,15.12,15.12,0,0,0,8.73.43c4-1.12,5.23-5.4,2.43-8.49a11,11,0,0,0-3.72-2.56L582,381.53a14.09,14.09,0,0,1-4.15-2.81,9.81,9.81,0,0,1,1.27-15.22,17.6,17.6,0,0,1,10-2.86c1.2,0,2.4,0,3.6,0Z"></path><path class="cls-1" d="M709.07,367.05c0,1.43,0,2.87,0,4.31,0,.83-.09,1.57-1.29,1.55-1,0-1.44-.29-1.54-1.31a24.54,24.54,0,0,0-.57-2.81,5.31,5.31,0,0,0-3.66-4.1,16.27,16.27,0,0,0-11.5.14c-3.78,1.53-5.45,4.79-6.11,8.59a27.78,27.78,0,0,0,.39,11.9c2.87,10.91,12.45,11.85,19.42,9.46a4.6,4.6,0,0,0,2.75-2.85,35.85,35.85,0,0,0,1.6-4.25c.32-1.28,1.06-1.42,2.11-1.33.6,0,.86.36.8.93q-.44,4.29-.9,8.58c-.07.64-.55.9-1.12,1.1-7.85,2.74-15.79,3.52-23.65.31-6.76-2.77-9.88-8.29-10.55-15.34a21.87,21.87,0,0,1,.62-8.09c1.75-6.22,5.94-10.07,12-12,5.06-1.64,10.25-1.45,15.44-.77,1.58.2,3.16.52,4.75.64,1.06.09,1.32.57,1.27,1.52,0,1.28,0,2.56,0,3.84Z"></path><path class="cls-1" d="M51.34,367.18c0,1.52,0,3,0,4.55,0,.79-.28,1.17-1.12,1.16s-1.43,0-1.6-1-.4-2.19-.64-3.28a5.12,5.12,0,0,0-3.52-3.91,16,16,0,0,0-11.26.08,8.23,8.23,0,0,0-4.92,5c-2.4,6.77-2.32,13.51,1.06,19.94,2.1,4,5.79,5.78,10.21,6.12a17.3,17.3,0,0,0,2.16,0c4.44-.16,7.72-1.84,8.68-6.59.13-.62.43-1.21.58-1.83.28-1.2,1.19-1.12,2.06-1s.71.94.66,1.5c-.24,2.54-.57,5.07-.81,7.61A1.62,1.62,0,0,1,51.66,397c-7.29,2.58-14.67,3.32-22.06.7-6.84-2.43-10.42-7.63-11.33-14.72a23.88,23.88,0,0,1,.14-7.64c1.48-7.54,6.23-12,13.5-13.95a35,35,0,0,1,13.8-.36c1.5.2,3,.53,4.51.62,1.19.08,1.45.63,1.39,1.68-.06,1.28,0,2.56,0,3.83Z"></path><path class="cls-1" d="M319.59,367.06c-.09,1.45-.21,3.13-.29,4.8,0,.84-.47,1.08-1.24,1s-1.28,0-1.4-.88-.37-2-.58-3.06a5.58,5.58,0,0,0-4.2-4.47,16.94,16.94,0,0,0-9.92,0,8.74,8.74,0,0,0-5.85,5.61,24.15,24.15,0,0,0,.92,19.09c2.17,4.43,6.06,6.4,10.88,6.66a19.52,19.52,0,0,0,5.68-.73,5.15,5.15,0,0,0,3.77-3.34c.55-1.42,1.15-2.82,1.57-4.27.28-1,.82-1.2,1.73-1.18s1.09.4,1,1.19c-.27,2.63-.51,5.25-.74,7.88a1.82,1.82,0,0,1-1.43,1.67c-6.89,2.41-13.87,3.13-20.94,1-7.56-2.29-12-8.33-12.5-16.64a23.17,23.17,0,0,1,.61-7.38c1.87-6.92,6.58-10.93,13.37-12.66a35.21,35.21,0,0,1,13.57-.34c1.42.19,2.85.39,4.27.62,1.69.26,1.69.28,1.71,2.06C319.6,364.76,319.59,365.8,319.59,367.06Z"></path><path class="cls-1" d="M175.2,360.71c2.12.15,3.72.29,5.31.35,1,0,1.44.38,1.44,1.42,0,2.24.13,4.47.15,6.71,0,.65.26,1.5-.83,1.69s-1.54-.46-1.81-1.4-.62-1.81-.94-2.71a3.81,3.81,0,0,0-3.11-2.64,10.36,10.36,0,0,0-5,.05,4.67,4.67,0,0,0-2.64,7.43,8.76,8.76,0,0,0,3.3,2.71c1.92,1,3.85,1.94,5.77,2.91a17.7,17.7,0,0,1,4,2.65,10.66,10.66,0,0,1-.44,16.22,14.33,14.33,0,0,1-7.68,3,35.21,35.21,0,0,1-11.65-1,1.54,1.54,0,0,1-1.39-1.37,49.89,49.89,0,0,1-.91-7.6c0-.64-.1-1.35.86-1.37.79,0,1.61-.21,1.91.9s.7,2.28,1.1,3.41a4.9,4.9,0,0,0,1.45,2.16c2.2,1.86,8.2,2.09,10.5.41a5.36,5.36,0,0,0,1.12-7.11,8.8,8.8,0,0,0-3.57-3.11c-2.12-1.11-4.3-2.11-6.39-3.28-4.77-2.68-6.92-7.55-5.45-12.57,1.41-4.79,5-7,9.69-7.77A17.65,17.65,0,0,1,175.2,360.71Z"></path><path class="cls-1" d="M447.7,388.84c.13,3.14-.6,6-1,8.92-.15,1-.84,1-1.61,1-2.16,0-4.31,0-6.47,0h-19.9c-.89,0-1.83.15-1.7-1.27.06-.64.22-1.07.93-1.13a5.83,5.83,0,0,0,.7-.15c3.76-.8,3.13-.9,3.15-3.87.05-8.47,0-16.93,0-25.4,0-2.58-.08-2.62-2.55-3.15-.54-.12-1.09-.23-1.62-.38-.77-.22-.55-.87-.57-1.4s.45-.77,1-.77h7.43c2.63,0,5.27,0,7.91,0,.59,0,1.31-.19,1.44.78s-.34,1.48-1.26,1.62c-4,.58-3.48.95-3.49,4.52q0,12.35,0,24.69c0,2.31,0,2.34,2.37,2.52a67.5,67.5,0,0,0,7.66.05,3.74,3.74,0,0,0,3.69-2.53c.31-.82.73-1.6,1-2.43C445.33,388.62,445.51,388.46,447.7,388.84Z"></path><path class="cls-1" d="M553.84,379.82c0-4.47,0-8.94,0-13.4,0-2-.16-2.11-2.06-2.56-.55-.13-1.1-.23-1.65-.32-.92-.15-1.11-.75-1-1.57s.68-.76,1.24-.76h15.32c.58,0,1.14,0,1.19.79s-.06,1.37-1,1.58c-1.14.26-2.6.05-3.3,1.11s-.38,2.64-.38,4c0,7.66,0,15.32,0,23,0,.64,0,1.28,0,1.92.11,1.84.2,1.93,2,2.37a10.33,10.33,0,0,0,1.63.36c1,.08,1,.75,1,1.51,0,.95-.61.94-1.3.94H550.49c-.63,0-1.31.1-1.39-.86s.23-1.39,1.24-1.61c3.86-.84,3.46-.08,3.54-4.72.07-3.91,0-7.82,0-11.73Z"></path><path class="cls-1" d="M339.3,398.75h-7.43c-.66,0-1.3,0-1.29-.94,0-.78,0-1.38,1.05-1.51,3.93-.49,3.63-.94,3.63-5q0-11.5,0-23c0-.72,0-1.44,0-2.16a2,2,0,0,0-1.93-2.27c-.63-.1-1.25-.26-1.88-.38-.85-.15-.86-.77-.85-1.44s.51-.86,1.11-.86H346.8c.56,0,1.16,0,1.17.79,0,.65.1,1.32-.78,1.5-.23.05-.46.14-.69.18-3.1.57-3.12.35-3.14,3.87,0,8.23,0,16.46,0,24.69,0,.56.08,1.12.06,1.68a1.69,1.69,0,0,0,1.61,2c.55.09,1.09.31,1.64.36,1,.08,1.38.49,1.34,1.51s-.8,1-1.5,1Z"></path><path class="cls-1" d="M661.09,398.75c-2.48,0-5,0-7.43,0-.68,0-1.49.19-1.51-1a1.27,1.27,0,0,1,1.12-1.48c3.67-1,3.68-1.05,3.69-4.86q0-12.33,0-24.67c0-2.4-.09-2.44-2.46-3l-1.4-.29c-.82-.15-.92-.71-.9-1.41s.54-.87,1.13-.87h15.58c.48,0,1,0,1,.69s.19,1.33-.69,1.54c-.62.14-1.25.25-1.87.39-1.88.45-2.08.68-2.17,2.55,0,.32,0,.64,0,1q0,12.57,0,25.15c0,.48,0,1,0,1.44a1.81,1.81,0,0,0,1.7,1.94,18.31,18.31,0,0,0,1.87.39c1.14.07,1.22.76,1.17,1.64s-.81.82-1.4.82C666,398.76,663.56,398.75,661.09,398.75Z"></path><path class="cls-1" d="M565.24,347.91c1.36,3.17.75,5.53-1.87,6.89-3,1.56-6.27,2.29-9.48,3.2-1,.27-1-.36-1-1.09s.57-1.07,1.1-1.43Z"></path></g></g></svg>